<?xml version="1.0" encoding="UTF-8"?>
<svg id="Camada_2" data-name="Camada 2" xmlns="http://www.w3.org/2000/svg" viewBox="0 0 1924.18 227.84">
  <defs>
    <style>
      .cls-1 {
        stroke: #cfad6d;
        stroke-linecap: round;
        stroke-miterlimit: 1.33;
        stroke-width: 7.23px;
      }

      .cls-1, .cls-2 {
        fill: none;
      }

      .cls-2 {
        stroke: #fff;
        stroke-dasharray: 12 6 0 0 0 0;
        stroke-linejoin: round;
        stroke-width: 1px;
      }
    </style>
  </defs>
  <g id="Camada_1-2" data-name="Camada 1">
    <g>
      <path class="cls-2" d="M.5,113.92c0,62.57,42.22,113.42,122.35,113.42s110.34-45.92,114.34-86.91h-56.4c-3.39,17.26-20.03,40.07-57.02,40.07-41.61,0-66.57-29.59-66.57-66.57s24.97-66.57,66.57-66.57c36.98,0,53.63,22.81,57.02,40.07h56.4C233.19,46.42,198.98.5,122.85.5,42.72.5.5,51.35.5,113.92h0Z"/>
      <path class="cls-2" d="M372.81.5c-82.29,0-125.75,50.85-125.75,113.42s43.46,113.42,125.75,113.42,125.75-50.85,125.75-113.42S455.1.5,372.81.5h0ZM372.81,180.49c-44.38,0-69.04-29.59-69.04-66.57s24.66-66.57,69.04-66.57,69.04,29.59,69.04,66.57-24.96,66.57-69.04,66.57h0Z"/>
      <path class="cls-2" d="M572.52,222.4V78.78c0-8.63-3.39-16.64-7.09-24.35-2.16-4.62-2.77-8.94,2.16-9.55,2.16-.31,4.01,1.85,4.93,3.7l86.3,173.83h88.76V5.43h-56.71v143.62c0,8.63,3.39,16.64,7.09,24.35,2.16,4.62,2.77,8.94-2.16,9.55-2.16.31-4.01-1.85-4.93-3.7L604.57,5.43h-88.76v216.97h56.71,0Z"/>
      <path class="cls-2" d="M878.25,83.41c-44.69-3.08-47.15-11.71-47.15-20.03,0-6.78,8.01-18.49,44.69-18.49s45.61,12.94,45.61,27.12h54.86c-1.54-36.68-26.2-71.5-99.86-71.5s-101.71,28.35-101.71,64.72c0,38.22,19.42,63.8,101.09,70.58,42.22,3.39,51.78,10.79,51.78,23.73,0,10.79-10.79,23.42-51.78,23.42s-52.39-17.88-52.39-36.98h-56.09c0,42.53,29.59,81.37,108.49,81.37s108.49-32.67,108.49-70.89c0-49.31-35.44-68.11-106.02-73.04h0Z"/>
      <rect class="cls-2" x="1004" y="5.43" width="56.71" height="216.97"/>
      <path class="cls-2" d="M1090.3,222.4h182.45v-46.85h-125.75V5.43h-56.71v216.97Z"/>
      <rect class="cls-2" x="1294.94" y="5.43" width="56.71" height="216.97"/>
      <path class="cls-2" d="M1546.43,131.79c0,35.75-31.13,48.7-54.24,48.7s-54.24-12.64-54.24-48.7V5.43h-56.71v125.13c0,65.96,47.77,96.78,110.95,96.78s110.95-30.82,110.95-96.78V5.43h-56.71v126.36Z"/>
      <path class="cls-2" d="M1689.45,222.4V80.94c0-8.94-2.77-20.65-6.16-29.89-1.85-4.93-2.16-8.63,1.85-9.55s4.93,2.16,5.86,5.24l50.85,175.67h72.73l50.85-175.67c.92-3.08,1.85-6.16,5.86-5.24s3.7,4.62,1.85,9.55c-3.39,9.25-6.16,20.96-6.16,29.89v141.46h56.71V5.43h-93.08l-43.76,152.87c-2.16,7.71-3.7,14.79-3.7,23.11,0,3.39-.93,6.16-4.93,6.16s-4.93-2.77-4.93-6.16c0-8.32-1.54-15.41-3.7-23.11l-43.76-152.87h-93.08v216.97h56.71Z"/>
    </g>
    <path class="cls-1" d="M572.51,88.02c-.55-8.2.5-16.14-3.65-25.59-4.55-10.35-7.58-15.27-3-17.25,5.39-2.34,6.83,5.01,11.53,13.57,2.56,4.67,7.24,14.6,7.24,14.6"/>
  </g>
</svg>
